<?xml version="1.0"?>
<svg xmlns="http://www.w3.org/2000/svg" id="Layer_2" data-name="Layer 2" viewBox="0 0 128 128" width="512px" height="512px" class=""><g><title class="active-path" style="">CARDIGAN</title><path d="M127.638,40.6,104.68,10.692a1.914,1.914,0,0,0-.582-.487L84.823.2a1.841,1.841,0,0,0-.807-.2H43.984a1.841,1.841,0,0,0-.807.2L23.9,10.205a1.914,1.914,0,0,0-.582.487L.362,40.6A1.743,1.743,0,0,0,0,41.667v71.666a1.75,1.75,0,0,0,1.75,1.75H22.958V126.25a1.75,1.75,0,0,0,1.75,1.75H53.992a1.75,1.75,0,0,0,1.75-1.75v-8H72.258v8a1.75,1.75,0,0,0,1.75,1.75h29.284a1.75,1.75,0,0,0,1.75-1.75V115.083H126.25a1.75,1.75,0,0,0,1.75-1.75V41.667A1.743,1.743,0,0,0,127.638,40.6ZM124.5,100.75H105.042V16.912L124.5,42.261ZM81.8,3.5,80.322,9.75H47.678L46.2,3.5ZM22.958,16.912V100.75H3.5V42.261ZM3.5,111.583V104.25H22.958v7.333ZM52.242,124.5H26.458V12.821L42.8,4.337l3.153,13.3a233.811,233.811,0,0,1,6.291,53.835V124.5Zm3.5-9.75V71.474a237.24,237.24,0,0,0-6.386-54.642l-.849-3.582H79.493l-.849,3.582a237.24,237.24,0,0,0-6.386,54.642V114.75Zm45.8,9.75H75.758V71.474a233.811,233.811,0,0,1,6.291-53.835L85.2,4.337l16.34,8.484V124.5ZM124.5,111.583H105.042V104.25H124.5Z" data-original="#000000" class="active-path" fill="#FFFFFF"/><path d="M45.667,57.375a1.749,1.749,0,0,0-1.75,1.75v3.208a1.75,1.75,0,0,0,3.5,0V59.125A1.75,1.75,0,0,0,45.667,57.375Z" data-original="#000000" class="active-path" fill="#FFFFFF"/><path d="M45.667,71.042a1.749,1.749,0,0,0-1.75,1.75V76a1.75,1.75,0,0,0,3.5,0V72.792A1.75,1.75,0,0,0,45.667,71.042Z" data-original="#000000" class="active-path" fill="#FFFFFF"/><path d="M45.667,84.708a1.749,1.749,0,0,0-1.75,1.75v3.209a1.75,1.75,0,0,0,3.5,0V86.458A1.75,1.75,0,0,0,45.667,84.708Z" data-original="#000000" class="active-path" fill="#FFFFFF"/><path d="M45.667,98.375a1.749,1.749,0,0,0-1.75,1.75v3.208a1.75,1.75,0,0,0,3.5,0v-3.208A1.75,1.75,0,0,0,45.667,98.375Z" data-original="#000000" class="active-path" fill="#FFFFFF"/></g> </svg>
