<?xml version="1.0"?>
<svg xmlns="http://www.w3.org/2000/svg" xmlns:xlink="http://www.w3.org/1999/xlink" version="1.1" id="Layer_1" x="0px" y="0px" viewBox="0 0 512.003 512.003" style="enable-background:new 0 0 512.003 512.003;" xml:space="preserve" width="512px" height="512px"><g><g>
	<g>
		<path d="M455.313,106.541c-3.251-5.419-66.509-49.493-124.681-35.533c-20.245,4.853-37.328,15.879-51.214,32.982    c6.128-57.439,24.959-76.297,38.079-89.424c2.449-2.441,3.174-6.101,1.852-9.293C318.026,2.074,314.92,0,311.464,0    c-41.388,0-101.041,25.484-116.768,81.641c-3.653-3.165-7.477-6.006-11.493-8.491C152.45,54.138,112.36,55.555,60.665,77.477    c-3.311,1.408-5.376,4.753-5.171,8.354c0.205,3.593,2.662,6.682,6.127,7.697c3.343,0.99,80.154,25.022,100.086,145.408H64.001    c-4.71,0-8.533,3.814-8.533,8.533v42.667c0,4.719,3.823,8.533,8.533,8.533h26.908l5.689,34.133h69.803    c4.71,0,8.533,3.814,8.533,8.533c0,4.719-3.823,8.533-8.533,8.533H99.44l18.492,110.933H98.132c-2.628,0-5.103,1.212-6.724,3.285    c-1.613,2.065-2.193,4.762-1.553,7.313l8.533,34.133c0.947,3.797,4.361,6.468,8.277,6.468h273.067c3.917,0,7.33-2.671,8.277-6.468    l8.533-34.133c0.64-2.551,0.068-5.248-1.553-7.313c-1.613-2.074-4.096-3.285-6.724-3.285h-19.795l7.116-42.667h-89.719    c-4.71,0-8.533-3.814-8.533-8.533s3.823-8.533,8.533-8.533h92.561l17.064-102.4h26.908c4.71,0,8.533-3.814,8.533-8.533v-42.667    c0-4.719-3.823-8.533-8.533-8.533H313.652C334.229,177.823,382.195,119.469,448,119.469c3.072,0,5.914-1.655,7.433-4.335    C456.943,112.463,456.9,109.178,455.313,106.541z M373.068,494.936H113.33l-4.267-17.067h18.937h230.4h18.934L373.068,494.936z     M260.267,409.603c0,4.719-3.823,8.533-8.533,8.533h-8.533c-4.71,0-8.533-3.814-8.533-8.533s3.823-8.533,8.533-8.533h8.533    C256.445,401.069,260.267,404.884,260.267,409.603z M217.601,341.336c0,4.719-3.823,8.533-8.533,8.533h-8.533    c-4.71,0-8.533-3.814-8.533-8.533c0-4.719,3.823-8.533,8.533-8.533h8.533C213.778,332.803,217.601,336.617,217.601,341.336z     M290.438,19.311c-14.085,18.886-28.681,50.971-29.999,116.109c-6.941,15.367-12.494,33.338-16.636,53.904    c-4.402-25.667-10.658-47.324-18.829-65.209c-0.03-0.066-0.061-0.131-0.091-0.197c-0.69-1.505-1.391-2.987-2.107-4.438    c-0.19-0.385-0.384-0.761-0.575-1.142c-0.459-0.911-0.924-1.812-1.394-2.701c-0.501-0.951-1.01-1.886-1.523-2.813    c-0.199-0.357-0.398-0.714-0.598-1.068c-3.055-5.409-6.323-10.398-9.813-14.954C215.694,51.327,255.339,26.52,290.438,19.311z     M86.188,85.967c37.035-12.552,65.954-11.955,88.03,1.698c32.614,20.181,52.215,71.057,58.308,151.27h-53.521    C163.918,142.671,114.323,101.771,86.188,85.967z M413.867,281.603h-25.6H98.134h-25.6v-25.6h99.09h70.042h3.181h57.233h111.788    V281.603z M295.714,238.936H254.08c0.594-6.808,1.311-13.372,2.129-19.734c0.114-0.876,0.218-1.769,0.336-2.636    c0.058-0.431,0.123-0.849,0.182-1.278c4.127-29.653,10.801-54.522,19.946-74.18c0.154-0.331,0.278-0.672,0.388-1.018    c11.471-24.23,26.799-40.508,45.925-48.652c35.226-14.993,75.802,0.947,99.405,13.585    C359.501,118.061,314.701,177.957,295.714,238.936z" data-original="#000000" class="active-path" data-old_color="#000000" fill="#FFFFFF"/>
	</g>
</g></g> </svg>
